{
    "asset" : {
        "generator" : "Khronos glTF Blender I/O v1.7.33",
        "version" : "2.0"
    },
    "scene" : 0,
    "scenes" : [
        {
            "name" : "Scene",
            "nodes" : [
                0,
                1,
                2,
                3
            ]
        }
    ],
    "nodes" : [
        {
            "mesh" : 0,
            "name" : "FU_Base"
        },
        {
            "mesh" : 1,
            "name" : "FU_Glass"
        },
        {
            "mesh" : 2,
            "name" : "FU_Lamp"
        },
        {
            "mesh" : 3,
            "name" : "FU_Message"
        }
    ],
    "materials" : [
        {
            "name" : "BlackMetal",
            "pbrMetallicRoughness" : {
                "baseColorFactor" : [
                    0.5329999923706055,
                    0.5329999923706055,
                    0.5329999923706055,
                    1
                ],
                "roughnessFactor" : 0.30000001192092896
            }
        },
        {
            "alphaMode" : "BLEND",
            "name" : "RedGlass",
            "pbrMetallicRoughness" : {
                "baseColorFactor" : [
                    0.19343699514865875,
                    0.004548999946564436,
                    0.004548999946564436,
                    0.23000000417232513
                ],
                "roughnessFactor" : 0.5
            }
        },
        {
            "emissiveFactor" : [
                1,
                0,
                0
            ],
            "name" : "Plate.001",
            "pbrMetallicRoughness" : {
                "baseColorFactor" : [
                    0.20000000298023224,
                    0.004999999888241291,
                    0.004999999888241291,
                    1
                ],
                "metallicFactor" : 0,
                "roughnessFactor" : 0.5
            }
        },
        {
            "doubleSided" : true,
            "name" : "Material.001",
            "pbrMetallicRoughness" : {
                "baseColorTexture" : {
                    "index" : 0
                },
                "metallicFactor" : 0,
                "roughnessFactor" : 0.5
            }
        }
    ],
    "meshes" : [
        {
            "name" : "Cylinder",
            "primitives" : [
                {
                    "attributes" : {
                        "POSITION" : 0,
                        "NORMAL" : 1,
                        "TEXCOORD_0" : 2
                    },
                    "indices" : 3,
                    "material" : 0
                }
            ]
        },
        {
            "name" : "Sphere",
            "primitives" : [
                {
                    "attributes" : {
                        "POSITION" : 4,
                        "NORMAL" : 5,
                        "TEXCOORD_0" : 6
                    },
                    "indices" : 7,
                    "material" : 1
                }
            ]
        },
        {
            "name" : "Circle",
            "primitives" : [
                {
                    "attributes" : {
                        "POSITION" : 8,
                        "NORMAL" : 9,
                        "TEXCOORD_0" : 10
                    },
                    "indices" : 11,
                    "material" : 2
                }
            ]
        },
        {
            "name" : "Cube.001",
            "primitives" : [
                {
                    "attributes" : {
                        "POSITION" : 12,
                        "NORMAL" : 13,
                        "TEXCOORD_0" : 14
                    },
                    "indices" : 15,
                    "material" : 3
                }
            ]
        }
    ],
    "textures" : [
        {
            "sampler" : 0,
            "source" : 0
        }
    ],
    "images" : [
        {
            "mimeType" : "image/png",
            "name" : "MiG-15bis-Fuellamp",
            "uri" : "MiG-15bis-Fuellamp.png"
        }
    ],
    "accessors" : [
        {
            "bufferView" : 0,
            "componentType" : 5126,
            "count" : 320,
            "max" : [
                0.022499000653624535,
                0.013465000316500664,
                0.013381999917328358
            ],
            "min" : [
                0.0001140000022132881,
                -0.013399999588727951,
                -0.013482999987900257
            ],
            "type" : "VEC3"
        },
        {
            "bufferView" : 1,
            "componentType" : 5126,
            "count" : 320,
            "type" : "VEC3"
        },
        {
            "bufferView" : 2,
            "componentType" : 5126,
            "count" : 320,
            "type" : "VEC2"
        },
        {
            "bufferView" : 3,
            "componentType" : 5123,
            "count" : 480,
            "type" : "SCALAR"
        },
        {
            "bufferView" : 4,
            "componentType" : 5126,
            "count" : 171,
            "max" : [
                0.027809999883174896,
                0.010751999914646149,
                0.011251999996602535
            ],
            "min" : [
                0.016455000266432762,
                -0.010847000405192375,
                -0.011459000408649445
            ],
            "type" : "VEC3"
        },
        {
            "bufferView" : 5,
            "componentType" : 5126,
            "count" : 171,
            "type" : "VEC3"
        },
        {
            "bufferView" : 6,
            "componentType" : 5126,
            "count" : 171,
            "type" : "VEC2"
        },
        {
            "bufferView" : 7,
            "componentType" : 5123,
            "count" : 270,
            "type" : "SCALAR"
        },
        {
            "bufferView" : 8,
            "componentType" : 5126,
            "count" : 21,
            "max" : [
                0.0183470007032156,
                0.012849000282585621,
                0.012691999785602093
            ],
            "min" : [
                0.0183470007032156,
                -0.012702000327408314,
                -0.012858999893069267
            ],
            "type" : "VEC3"
        },
        {
            "bufferView" : 9,
            "componentType" : 5126,
            "count" : 21,
            "type" : "VEC3"
        },
        {
            "bufferView" : 10,
            "componentType" : 5126,
            "count" : 21,
            "type" : "VEC2"
        },
        {
            "bufferView" : 11,
            "componentType" : 5123,
            "count" : 30,
            "type" : "SCALAR"
        },
        {
            "bufferView" : 12,
            "componentType" : 5126,
            "count" : 76,
            "max" : [
                0.003969000186771154,
                -0.04944799840450287,
                0.0058609978295862675
            ],
            "min" : [
                7.899999764049426e-05,
                -0.09975399821996689,
                -0.016788003966212273
            ],
            "type" : "VEC3"
        },
        {
            "bufferView" : 13,
            "componentType" : 5126,
            "count" : 76,
            "type" : "VEC3"
        },
        {
            "bufferView" : 14,
            "componentType" : 5126,
            "count" : 76,
            "type" : "VEC2"
        },
        {
            "bufferView" : 15,
            "componentType" : 5123,
            "count" : 234,
            "type" : "SCALAR"
        }
    ],
    "bufferViews" : [
        {
            "buffer" : 0,
            "byteLength" : 3840,
            "byteOffset" : 0
        },
        {
            "buffer" : 0,
            "byteLength" : 3840,
            "byteOffset" : 3840
        },
        {
            "buffer" : 0,
            "byteLength" : 2560,
            "byteOffset" : 7680
        },
        {
            "buffer" : 0,
            "byteLength" : 960,
            "byteOffset" : 10240
        },
        {
            "buffer" : 0,
            "byteLength" : 2052,
            "byteOffset" : 11200
        },
        {
            "buffer" : 0,
            "byteLength" : 2052,
            "byteOffset" : 13252
        },
        {
            "buffer" : 0,
            "byteLength" : 1368,
            "byteOffset" : 15304
        },
        {
            "buffer" : 0,
            "byteLength" : 540,
            "byteOffset" : 16672
        },
        {
            "buffer" : 0,
            "byteLength" : 252,
            "byteOffset" : 17212
        },
        {
            "buffer" : 0,
            "byteLength" : 252,
            "byteOffset" : 17464
        },
        {
            "buffer" : 0,
            "byteLength" : 168,
            "byteOffset" : 17716
        },
        {
            "buffer" : 0,
            "byteLength" : 60,
            "byteOffset" : 17884
        },
        {
            "buffer" : 0,
            "byteLength" : 912,
            "byteOffset" : 17944
        },
        {
            "buffer" : 0,
            "byteLength" : 912,
            "byteOffset" : 18856
        },
        {
            "buffer" : 0,
            "byteLength" : 608,
            "byteOffset" : 19768
        },
        {
            "buffer" : 0,
            "byteLength" : 468,
            "byteOffset" : 20376
        }
    ],
    "samplers" : [
        {
            "magFilter" : 9729,
            "minFilter" : 9987
        }
    ],
    "buffers" : [
        {
            "byteLength" : 20844,
            "uri" : "MiG-15bis-Fuellamp.bin"
        }
    ]
}
