{
    "asset" : {
        "generator" : "Khronos glTF Blender I/O v1.7.33",
        "version" : "2.0"
    },
    "scene" : 0,
    "scenes" : [
        {
            "name" : "Scene",
            "nodes" : [
                0,
                1,
                3,
                4,
                5,
                6,
                7,
                8
            ]
        }
    ],
    "nodes" : [
        {
            "mesh" : 0,
            "name" : "GC_Base"
        },
        {
            "mesh" : 1,
            "name" : "GC_Bolts"
        },
        {
            "mesh" : 2,
            "name" : "GC_Down_1"
        },
        {
            "children" : [
                2
            ],
            "name" : "GC_Down"
        },
        {
            "mesh" : 3,
            "name" : "GC_Fix"
        },
        {
            "mesh" : 4,
            "name" : "GC_Message"
        },
        {
            "mesh" : 5,
            "name" : "GC_Switch"
        },
        {
            "mesh" : 6,
            "name" : "GC_Up"
        },
        {
            "mesh" : 7,
            "name" : "GC_Upper"
        }
    ],
    "materials" : [
        {
            "doubleSided" : true,
            "emissiveFactor" : [
                0.004999999888241291,
                0.004999999888241291,
                0.004999999888241291
            ],
            "name" : "BlackMetal",
            "pbrMetallicRoughness" : {
                "baseColorTexture" : {
                    "index" : 0
                },
                "metallicRoughnessTexture" : {
                    "index" : 1
                }
            }
        },
        {
            "doubleSided" : true,
            "emissiveFactor" : [
                0.10000000149011612,
                0.10000000149011612,
                0.10000000149011612
            ],
            "name" : "Plate",
            "pbrMetallicRoughness" : {
                "baseColorTexture" : {
                    "index" : 2
                },
                "metallicFactor" : 0,
                "roughnessFactor" : 0.5
            }
        }
    ],
    "meshes" : [
        {
            "name" : "Cube.001",
            "primitives" : [
                {
                    "attributes" : {
                        "POSITION" : 0,
                        "NORMAL" : 1,
                        "TEXCOORD_0" : 2
                    },
                    "indices" : 3,
                    "material" : 0
                }
            ]
        },
        {
            "name" : "Cylinder.001",
            "primitives" : [
                {
                    "attributes" : {
                        "POSITION" : 4,
                        "NORMAL" : 5,
                        "TEXCOORD_0" : 6
                    },
                    "indices" : 7,
                    "material" : 0
                }
            ]
        },
        {
            "name" : "Cube.002",
            "primitives" : [
                {
                    "attributes" : {
                        "POSITION" : 8,
                        "NORMAL" : 9,
                        "TEXCOORD_0" : 10
                    },
                    "indices" : 11,
                    "material" : 1
                }
            ]
        },
        {
            "name" : "Cube.005",
            "primitives" : [
                {
                    "attributes" : {
                        "POSITION" : 12,
                        "NORMAL" : 13,
                        "TEXCOORD_0" : 14
                    },
                    "indices" : 15,
                    "material" : 0
                }
            ]
        },
        {
            "name" : "Cube.006",
            "primitives" : [
                {
                    "attributes" : {
                        "POSITION" : 16,
                        "NORMAL" : 17,
                        "TEXCOORD_0" : 18
                    },
                    "indices" : 19,
                    "material" : 1
                }
            ]
        },
        {
            "name" : "Cylinder",
            "primitives" : [
                {
                    "attributes" : {
                        "POSITION" : 20,
                        "NORMAL" : 21,
                        "TEXCOORD_0" : 22
                    },
                    "indices" : 23,
                    "material" : 0
                }
            ]
        },
        {
            "name" : "Cube.003",
            "primitives" : [
                {
                    "attributes" : {
                        "POSITION" : 24,
                        "NORMAL" : 25,
                        "TEXCOORD_0" : 26
                    },
                    "indices" : 27,
                    "material" : 1
                }
            ]
        },
        {
            "name" : "Cube.007",
            "primitives" : [
                {
                    "attributes" : {
                        "POSITION" : 28,
                        "NORMAL" : 29,
                        "TEXCOORD_0" : 30
                    },
                    "indices" : 31,
                    "material" : 0
                }
            ]
        }
    ],
    "textures" : [
        {
            "sampler" : 0,
            "source" : 0
        },
        {
            "sampler" : 0,
            "source" : 1
        },
        {
            "sampler" : 0,
            "source" : 2
        }
    ],
    "images" : [
        {
            "mimeType" : "image/png",
            "name" : "MiG-15bis-Gearcontrol-Shadows",
            "uri" : "MiG-15bis-Gearcontrol-Shadows.png"
        },
        {
            "mimeType" : "image/png",
            "name" : "MiG-15bis-Gearcontrol-Shadows-ORM",
            "uri" : "MiG-15bis-Gearcontrol-Shadows-ORM.png"
        },
        {
            "mimeType" : "image/png",
            "name" : "MiG-15bis-Gearcontrol",
            "uri" : "MiG-15bis-Gearcontrol.png"
        }
    ],
    "accessors" : [
        {
            "bufferView" : 0,
            "componentType" : 5126,
            "count" : 663,
            "max" : [
                0.031069999560713768,
                0.030659999698400497,
                0.03449999913573265
            ],
            "min" : [
                -0.0015699999639764428,
                -0.06633000075817108,
                -0.03587000072002411
            ],
            "type" : "VEC3"
        },
        {
            "bufferView" : 1,
            "componentType" : 5126,
            "count" : 663,
            "type" : "VEC3"
        },
        {
            "bufferView" : 2,
            "componentType" : 5126,
            "count" : 663,
            "type" : "VEC2"
        },
        {
            "bufferView" : 3,
            "componentType" : 5123,
            "count" : 1740,
            "type" : "SCALAR"
        },
        {
            "bufferView" : 4,
            "componentType" : 5126,
            "count" : 350,
            "max" : [
                0.007400000002235174,
                0.02858000062406063,
                0.03240000084042549
            ],
            "min" : [
                -0.00046999999904073775,
                -0.03491999953985214,
                -0.029910000041127205
            ],
            "type" : "VEC3"
        },
        {
            "bufferView" : 5,
            "componentType" : 5126,
            "count" : 350,
            "type" : "VEC3"
        },
        {
            "bufferView" : 6,
            "componentType" : 5126,
            "count" : 350,
            "type" : "VEC2"
        },
        {
            "bufferView" : 7,
            "componentType" : 5123,
            "count" : 672,
            "type" : "SCALAR"
        },
        {
            "bufferView" : 8,
            "componentType" : 5126,
            "count" : 62,
            "max" : [
                0.0010100000072270632,
                0.01802000217139721,
                -0.041600000113248825
            ],
            "min" : [
                -0.0016299999551847577,
                -0.04191999509930611,
                -0.055969998240470886
            ],
            "type" : "VEC3"
        },
        {
            "bufferView" : 9,
            "componentType" : 5126,
            "count" : 62,
            "type" : "VEC3"
        },
        {
            "bufferView" : 10,
            "componentType" : 5126,
            "count" : 62,
            "type" : "VEC2"
        },
        {
            "bufferView" : 11,
            "componentType" : 5123,
            "count" : 186,
            "type" : "SCALAR"
        },
        {
            "bufferView" : 12,
            "componentType" : 5126,
            "count" : 223,
            "max" : [
                0.02314000017940998,
                0.010110000148415565,
                0.009789999574422836
            ],
            "min" : [
                0.00026000000070780516,
                -0.055479999631643295,
                -0.01056000217795372
            ],
            "type" : "VEC3"
        },
        {
            "bufferView" : 13,
            "componentType" : 5126,
            "count" : 223,
            "type" : "VEC3"
        },
        {
            "bufferView" : 14,
            "componentType" : 5126,
            "count" : 223,
            "type" : "VEC2"
        },
        {
            "bufferView" : 15,
            "componentType" : 5123,
            "count" : 558,
            "type" : "SCALAR"
        },
        {
            "bufferView" : 16,
            "componentType" : 5126,
            "count" : 64,
            "max" : [
                0.0012799999676644802,
                -0.02006000094115734,
                0.047940000891685486
            ],
            "min" : [
                -0.0013599999947473407,
                -0.07998999953269958,
                0.033709995448589325
            ],
            "type" : "VEC3"
        },
        {
            "bufferView" : 17,
            "componentType" : 5126,
            "count" : 64,
            "type" : "VEC3"
        },
        {
            "bufferView" : 18,
            "componentType" : 5126,
            "count" : 64,
            "type" : "VEC2"
        },
        {
            "bufferView" : 19,
            "componentType" : 5123,
            "count" : 186,
            "type" : "SCALAR"
        },
        {
            "bufferView" : 20,
            "componentType" : 5126,
            "count" : 295,
            "max" : [
                0.06126999855041504,
                0.011180000379681587,
                0.010440000332891941
            ],
            "min" : [
                -0.018370000645518303,
                -0.011699999682605267,
                -0.008799999952316284
            ],
            "type" : "VEC3"
        },
        {
            "bufferView" : 21,
            "componentType" : 5126,
            "count" : 295,
            "type" : "VEC3"
        },
        {
            "bufferView" : 22,
            "componentType" : 5126,
            "count" : 295,
            "type" : "VEC2"
        },
        {
            "bufferView" : 23,
            "componentType" : 5123,
            "count" : 852,
            "type" : "SCALAR"
        },
        {
            "bufferView" : 24,
            "componentType" : 5126,
            "count" : 62,
            "max" : [
                0.0012600000482052565,
                0.012219997122883797,
                0.06459999829530716
            ],
            "min" : [
                -0.0013800000306218863,
                -0.047710005193948746,
                0.0502300001680851
            ],
            "type" : "VEC3"
        },
        {
            "bufferView" : 25,
            "componentType" : 5126,
            "count" : 62,
            "type" : "VEC3"
        },
        {
            "bufferView" : 26,
            "componentType" : 5126,
            "count" : 62,
            "type" : "VEC2"
        },
        {
            "bufferView" : 27,
            "componentType" : 5123,
            "count" : 186,
            "type" : "SCALAR"
        },
        {
            "bufferView" : 28,
            "componentType" : 5126,
            "count" : 258,
            "max" : [
                0.009290000423789024,
                -0.010959998704493046,
                0.023749999701976776
            ],
            "min" : [
                0.000750000006519258,
                -0.03799000009894371,
                -0.025710001587867737
            ],
            "type" : "VEC3"
        },
        {
            "bufferView" : 29,
            "componentType" : 5126,
            "count" : 258,
            "type" : "VEC3"
        },
        {
            "bufferView" : 30,
            "componentType" : 5126,
            "count" : 258,
            "type" : "VEC2"
        },
        {
            "bufferView" : 31,
            "componentType" : 5123,
            "count" : 714,
            "type" : "SCALAR"
        }
    ],
    "bufferViews" : [
        {
            "buffer" : 0,
            "byteLength" : 7956,
            "byteOffset" : 0
        },
        {
            "buffer" : 0,
            "byteLength" : 7956,
            "byteOffset" : 7956
        },
        {
            "buffer" : 0,
            "byteLength" : 5304,
            "byteOffset" : 15912
        },
        {
            "buffer" : 0,
            "byteLength" : 3480,
            "byteOffset" : 21216
        },
        {
            "buffer" : 0,
            "byteLength" : 4200,
            "byteOffset" : 24696
        },
        {
            "buffer" : 0,
            "byteLength" : 4200,
            "byteOffset" : 28896
        },
        {
            "buffer" : 0,
            "byteLength" : 2800,
            "byteOffset" : 33096
        },
        {
            "buffer" : 0,
            "byteLength" : 1344,
            "byteOffset" : 35896
        },
        {
            "buffer" : 0,
            "byteLength" : 744,
            "byteOffset" : 37240
        },
        {
            "buffer" : 0,
            "byteLength" : 744,
            "byteOffset" : 37984
        },
        {
            "buffer" : 0,
            "byteLength" : 496,
            "byteOffset" : 38728
        },
        {
            "buffer" : 0,
            "byteLength" : 372,
            "byteOffset" : 39224
        },
        {
            "buffer" : 0,
            "byteLength" : 2676,
            "byteOffset" : 39596
        },
        {
            "buffer" : 0,
            "byteLength" : 2676,
            "byteOffset" : 42272
        },
        {
            "buffer" : 0,
            "byteLength" : 1784,
            "byteOffset" : 44948
        },
        {
            "buffer" : 0,
            "byteLength" : 1116,
            "byteOffset" : 46732
        },
        {
            "buffer" : 0,
            "byteLength" : 768,
            "byteOffset" : 47848
        },
        {
            "buffer" : 0,
            "byteLength" : 768,
            "byteOffset" : 48616
        },
        {
            "buffer" : 0,
            "byteLength" : 512,
            "byteOffset" : 49384
        },
        {
            "buffer" : 0,
            "byteLength" : 372,
            "byteOffset" : 49896
        },
        {
            "buffer" : 0,
            "byteLength" : 3540,
            "byteOffset" : 50268
        },
        {
            "buffer" : 0,
            "byteLength" : 3540,
            "byteOffset" : 53808
        },
        {
            "buffer" : 0,
            "byteLength" : 2360,
            "byteOffset" : 57348
        },
        {
            "buffer" : 0,
            "byteLength" : 1704,
            "byteOffset" : 59708
        },
        {
            "buffer" : 0,
            "byteLength" : 744,
            "byteOffset" : 61412
        },
        {
            "buffer" : 0,
            "byteLength" : 744,
            "byteOffset" : 62156
        },
        {
            "buffer" : 0,
            "byteLength" : 496,
            "byteOffset" : 62900
        },
        {
            "buffer" : 0,
            "byteLength" : 372,
            "byteOffset" : 63396
        },
        {
            "buffer" : 0,
            "byteLength" : 3096,
            "byteOffset" : 63768
        },
        {
            "buffer" : 0,
            "byteLength" : 3096,
            "byteOffset" : 66864
        },
        {
            "buffer" : 0,
            "byteLength" : 2064,
            "byteOffset" : 69960
        },
        {
            "buffer" : 0,
            "byteLength" : 1428,
            "byteOffset" : 72024
        }
    ],
    "samplers" : [
        {
            "magFilter" : 9729,
            "minFilter" : 9987
        }
    ],
    "buffers" : [
        {
            "byteLength" : 73452,
            "uri" : "MiG-15bis-Gearcontrol.bin"
        }
    ]
}
