{
    "asset" : {
        "generator" : "Khronos glTF Blender I/O v1.7.33",
        "version" : "2.0"
    },
    "scene" : 0,
    "scenes" : [
        {
            "name" : "Scene",
            "nodes" : [
                0,
                1,
                2,
                3,
                4,
                5,
                6
            ]
        }
    ],
    "nodes" : [
        {
            "mesh" : 0,
            "name" : "MC_Bezel"
        },
        {
            "mesh" : 1,
            "name" : "MC_Blackpanel"
        },
        {
            "mesh" : 2,
            "name" : "MC_Box"
        },
        {
            "mesh" : 3,
            "name" : "MC_Cylinder"
        },
        {
            "mesh" : 4,
            "name" : "MC_Glass"
        },
        {
            "mesh" : 5,
            "name" : "MC_Line"
        },
        {
            "mesh" : 6,
            "name" : "MC_Vern"
        }
    ],
    "materials" : [
        {
            "name" : "DefaultWhite",
            "normalTexture" : {
                "index" : 0
            },
            "pbrMetallicRoughness" : {
                "baseColorTexture" : {
                    "index" : 1
                },
                "metallicRoughnessTexture" : {
                    "index" : 2
                }
            }
        },
        {
            "alphaMode" : "BLEND",
            "name" : "Glass",
            "pbrMetallicRoughness" : {
                "baseColorFactor" : [
                    0.800000011920929,
                    0.800000011920929,
                    0.800000011920929,
                    0.23000000417232513
                ],
                "roughnessFactor" : 0.10000000149011612
            }
        }
    ],
    "meshes" : [
        {
            "name" : "Mesh.005",
            "primitives" : [
                {
                    "attributes" : {
                        "POSITION" : 0,
                        "NORMAL" : 1,
                        "TEXCOORD_0" : 2
                    },
                    "indices" : 3,
                    "material" : 0
                }
            ]
        },
        {
            "name" : "Cylinder.015",
            "primitives" : [
                {
                    "attributes" : {
                        "POSITION" : 4,
                        "NORMAL" : 5,
                        "TEXCOORD_0" : 6
                    },
                    "indices" : 7,
                    "material" : 0
                }
            ]
        },
        {
            "name" : "Mesh.006",
            "primitives" : [
                {
                    "attributes" : {
                        "POSITION" : 8,
                        "NORMAL" : 9,
                        "TEXCOORD_0" : 10
                    },
                    "indices" : 11,
                    "material" : 0
                }
            ]
        },
        {
            "name" : "Cylinder.006",
            "primitives" : [
                {
                    "attributes" : {
                        "POSITION" : 12,
                        "NORMAL" : 13,
                        "TEXCOORD_0" : 14
                    },
                    "indices" : 15,
                    "material" : 0
                }
            ]
        },
        {
            "name" : "Cylinder.004",
            "primitives" : [
                {
                    "attributes" : {
                        "POSITION" : 16,
                        "NORMAL" : 17,
                        "TEXCOORD_0" : 18
                    },
                    "indices" : 19,
                    "material" : 1
                }
            ]
        },
        {
            "name" : "Cube",
            "primitives" : [
                {
                    "attributes" : {
                        "POSITION" : 20,
                        "NORMAL" : 21,
                        "TEXCOORD_0" : 22
                    },
                    "indices" : 23,
                    "material" : 0
                }
            ]
        },
        {
            "name" : "Cylinder.008",
            "primitives" : [
                {
                    "attributes" : {
                        "POSITION" : 24,
                        "NORMAL" : 25,
                        "TEXCOORD_0" : 26
                    },
                    "indices" : 27,
                    "material" : 0
                }
            ]
        }
    ],
    "textures" : [
        {
            "sampler" : 0,
            "source" : 0
        },
        {
            "sampler" : 0,
            "source" : 1
        },
        {
            "sampler" : 0,
            "source" : 2
        }
    ],
    "images" : [
        {
            "mimeType" : "image/png",
            "name" : "MiG-15bis-Magcompass_normal",
            "uri" : "MiG-15bis-Magcompass_normal.png"
        },
        {
            "mimeType" : "image/png",
            "name" : "MiG-15bis-Magcompass",
            "uri" : "MiG-15bis-Magcompass.png"
        },
        {
            "mimeType" : "image/png",
            "name" : "MiG-15bis-Magcompass_ORM",
            "uri" : "MiG-15bis-Magcompass_ORM.png"
        }
    ],
    "accessors" : [
        {
            "bufferView" : 0,
            "componentType" : 5126,
            "count" : 904,
            "max" : [
                0.030820000916719437,
                0.0466499999165535,
                0.0466499999165535
            ],
            "min" : [
                0,
                -0.0466499999165535,
                -0.0466499999165535
            ],
            "type" : "VEC3"
        },
        {
            "bufferView" : 1,
            "componentType" : 5126,
            "count" : 904,
            "type" : "VEC3"
        },
        {
            "bufferView" : 2,
            "componentType" : 5126,
            "count" : 904,
            "type" : "VEC2"
        },
        {
            "bufferView" : 3,
            "componentType" : 5123,
            "count" : 1902,
            "type" : "SCALAR"
        },
        {
            "bufferView" : 4,
            "componentType" : 5126,
            "count" : 66,
            "max" : [
                -0.006020000204443932,
                0.05110999941825867,
                0.05355000123381615
            ],
            "min" : [
                -0.006020000204443932,
                -0.052480001002550125,
                -0.050039999186992645
            ],
            "type" : "VEC3"
        },
        {
            "bufferView" : 5,
            "componentType" : 5126,
            "count" : 66,
            "type" : "VEC3"
        },
        {
            "bufferView" : 6,
            "componentType" : 5126,
            "count" : 66,
            "type" : "VEC2"
        },
        {
            "bufferView" : 7,
            "componentType" : 5123,
            "count" : 72,
            "type" : "SCALAR"
        },
        {
            "bufferView" : 8,
            "componentType" : 5126,
            "count" : 311,
            "max" : [
                2.9999999242136255e-05,
                0.0567300021648407,
                0.07114999741315842
            ],
            "min" : [
                -0.15331999957561493,
                -0.0567299984395504,
                -0.05592000484466553
            ],
            "type" : "VEC3"
        },
        {
            "bufferView" : 9,
            "componentType" : 5126,
            "count" : 311,
            "type" : "VEC3"
        },
        {
            "bufferView" : 10,
            "componentType" : 5126,
            "count" : 311,
            "type" : "VEC2"
        },
        {
            "bufferView" : 11,
            "componentType" : 5123,
            "count" : 864,
            "type" : "SCALAR"
        },
        {
            "bufferView" : 12,
            "componentType" : 5126,
            "count" : 50,
            "max" : [
                0.023879999294877052,
                0.028790000826120377,
                0.0159200020134449
            ],
            "min" : [
                -0.0328500010073185,
                -0.0279300007969141,
                -0.012450001202523708
            ],
            "type" : "VEC3"
        },
        {
            "bufferView" : 13,
            "componentType" : 5126,
            "count" : 50,
            "type" : "VEC3"
        },
        {
            "bufferView" : 14,
            "componentType" : 5126,
            "count" : 50,
            "type" : "VEC2"
        },
        {
            "bufferView" : 15,
            "componentType" : 5123,
            "count" : 144,
            "type" : "SCALAR"
        },
        {
            "bufferView" : 16,
            "componentType" : 5126,
            "count" : 64,
            "max" : [
                0.026890000328421593,
                0.03077000193297863,
                0.02274000272154808
            ],
            "min" : [
                -0.003700000001117587,
                -0.030410001054406166,
                -0.02256000228226185
            ],
            "type" : "VEC3"
        },
        {
            "bufferView" : 17,
            "componentType" : 5126,
            "count" : 64,
            "type" : "VEC3"
        },
        {
            "bufferView" : 18,
            "componentType" : 5126,
            "count" : 64,
            "type" : "VEC2"
        },
        {
            "bufferView" : 19,
            "componentType" : 5123,
            "count" : 96,
            "type" : "SCALAR"
        },
        {
            "bufferView" : 20,
            "componentType" : 5126,
            "count" : 20,
            "max" : [
                0.026030000299215317,
                0.0010700010461732745,
                0.02548000030219555
            ],
            "min" : [
                0.025869999080896378,
                -0.0007700010901317,
                -0.02304000034928322
            ],
            "type" : "VEC3"
        },
        {
            "bufferView" : 21,
            "componentType" : 5126,
            "count" : 20,
            "type" : "VEC3"
        },
        {
            "bufferView" : 22,
            "componentType" : 5126,
            "count" : 20,
            "type" : "VEC2"
        },
        {
            "bufferView" : 23,
            "componentType" : 5123,
            "count" : 30,
            "type" : "SCALAR"
        },
        {
            "bufferView" : 24,
            "componentType" : 5126,
            "count" : 208,
            "max" : [
                0.03570999950170517,
                0.008479999378323555,
                0.039639998227357864
            ],
            "min" : [
                0.029920000582933426,
                -0.008480001240968704,
                0.022670000791549683
            ],
            "type" : "VEC3"
        },
        {
            "bufferView" : 25,
            "componentType" : 5126,
            "count" : 208,
            "type" : "VEC3"
        },
        {
            "bufferView" : 26,
            "componentType" : 5126,
            "count" : 208,
            "type" : "VEC2"
        },
        {
            "bufferView" : 27,
            "componentType" : 5123,
            "count" : 288,
            "type" : "SCALAR"
        }
    ],
    "bufferViews" : [
        {
            "buffer" : 0,
            "byteLength" : 10848,
            "byteOffset" : 0
        },
        {
            "buffer" : 0,
            "byteLength" : 10848,
            "byteOffset" : 10848
        },
        {
            "buffer" : 0,
            "byteLength" : 7232,
            "byteOffset" : 21696
        },
        {
            "buffer" : 0,
            "byteLength" : 3804,
            "byteOffset" : 28928
        },
        {
            "buffer" : 0,
            "byteLength" : 792,
            "byteOffset" : 32732
        },
        {
            "buffer" : 0,
            "byteLength" : 792,
            "byteOffset" : 33524
        },
        {
            "buffer" : 0,
            "byteLength" : 528,
            "byteOffset" : 34316
        },
        {
            "buffer" : 0,
            "byteLength" : 144,
            "byteOffset" : 34844
        },
        {
            "buffer" : 0,
            "byteLength" : 3732,
            "byteOffset" : 34988
        },
        {
            "buffer" : 0,
            "byteLength" : 3732,
            "byteOffset" : 38720
        },
        {
            "buffer" : 0,
            "byteLength" : 2488,
            "byteOffset" : 42452
        },
        {
            "buffer" : 0,
            "byteLength" : 1728,
            "byteOffset" : 44940
        },
        {
            "buffer" : 0,
            "byteLength" : 600,
            "byteOffset" : 46668
        },
        {
            "buffer" : 0,
            "byteLength" : 600,
            "byteOffset" : 47268
        },
        {
            "buffer" : 0,
            "byteLength" : 400,
            "byteOffset" : 47868
        },
        {
            "buffer" : 0,
            "byteLength" : 288,
            "byteOffset" : 48268
        },
        {
            "buffer" : 0,
            "byteLength" : 768,
            "byteOffset" : 48556
        },
        {
            "buffer" : 0,
            "byteLength" : 768,
            "byteOffset" : 49324
        },
        {
            "buffer" : 0,
            "byteLength" : 512,
            "byteOffset" : 50092
        },
        {
            "buffer" : 0,
            "byteLength" : 192,
            "byteOffset" : 50604
        },
        {
            "buffer" : 0,
            "byteLength" : 240,
            "byteOffset" : 50796
        },
        {
            "buffer" : 0,
            "byteLength" : 240,
            "byteOffset" : 51036
        },
        {
            "buffer" : 0,
            "byteLength" : 160,
            "byteOffset" : 51276
        },
        {
            "buffer" : 0,
            "byteLength" : 60,
            "byteOffset" : 51436
        },
        {
            "buffer" : 0,
            "byteLength" : 2496,
            "byteOffset" : 51496
        },
        {
            "buffer" : 0,
            "byteLength" : 2496,
            "byteOffset" : 53992
        },
        {
            "buffer" : 0,
            "byteLength" : 1664,
            "byteOffset" : 56488
        },
        {
            "buffer" : 0,
            "byteLength" : 576,
            "byteOffset" : 58152
        }
    ],
    "samplers" : [
        {
            "magFilter" : 9729,
            "minFilter" : 9987
        }
    ],
    "buffers" : [
        {
            "byteLength" : 58728,
            "uri" : "MiG-15bis-Magcompass.bin"
        }
    ]
}
